<?xml version="1.0" standalone="no"?>
<!DOCTYPE svg PUBLIC "-//W3C//DTD SVG 20010904//EN"
 "http://www.w3.org/TR/2001/REC-SVG-20010904/DTD/svg10.dtd">
<svg version="1.0" xmlns="http://www.w3.org/2000/svg"
 width="512.000000pt" height="512.000000pt" viewBox="0 0 512.000000 512.000000"
 preserveAspectRatio="xMidYMid meet">

<!-- Silhouette/Background fill (White) - only for the window shape -->
<g transform="translate(0.000000,512.000000) scale(0.100000,-0.100000)" fill="#FFFFFF">
  <!-- Header Silhouette -->
  <path d="M435 4654 c-91 -32 -160 -84 -210 -159 -65 -99 -67 -113 -72 -492 l-5 -343 2407 0 2407 0 -5 343 c-5 379 -7 393 -72 492 -51 76 -120 128 -209 158 -46 16 -215 17 -2125 16 -1765 0 -2082 -3 -2116 -15z" />
  <!-- Body Silhouette -->
  <path d="M157 3483 c-10 -10 -8 -2567 2 -2645 22 -167 138 -301 297 -343 51 -13 311 -15 2099 -15 1788 0 2048 2 2099 15 164 43 276 176 297 353 6 44 8 627 7 1357 l-3 1280 -2396 3 c-1318 1 -2399 -1 -2402 -5z" />
</g>

<!-- Original Artwork (Dark Grey) with holes for white to show through -->
<g transform="translate(0.000000,512.000000) scale(0.100000,-0.100000)"
 fill="#2a2a2a" stroke="none">
<path d="M435 4654 c-91 -32 -160 -84 -210 -159 -65 -99 -67 -113 -72 -492
l-5 -343 2407 0 2407 0 -5 343 c-5 379 -7 393 -72 492 -51 76 -120 128 -209
158 -46 16 -215 17 -2125 16 -1765 0 -2082 -3 -2116 -15z m262 -237 c65 -24
119 -73 149 -133 89 -182 -36 -386 -236 -386 -204 0 -331 214 -233 394 46 85
134 136 233 136 30 0 69 -5 87 -11z m868 -26 c96 -54 141 -143 132 -258 -18
-228 -298 -320 -454 -150 -42 45 -73 121 -73 177 0 60 32 133 79 182 86 91
207 110 316 49z m808 6 c28 -11 64 -39 88 -65 115 -131 75 -330 -85 -415 -58
-30 -174 -31 -231 0 -53 28 -110 89 -131 138 -50 120 6 278 119 337 78 40 154
41 240 5z"/>
<path d="M551 4233 c-65 -60 -30 -163 54 -163 49 0 74 15 90 53 18 43 9 82
-27 112 -39 33 -80 32 -117 -2z"/>
<path d="M1395 4246 c-31 -13 -55 -51 -55 -86 0 -75 91 -122 151 -77 59 44 46
142 -22 166 -39 13 -37 13 -74 -3z"/>
<path d="M2222 4245 c-38 -17 -66 -71 -56 -110 9 -34 60 -75 94 -75 34 0 85
41 94 75 10 40 -18 94 -58 110 -41 18 -33 18 -74 0z"/>
<path d="M157 3483 c-10 -10 -8 -2567 2 -2645 22 -167 138 -301 297 -343 51
-13 311 -15 2099 -15 1788 0 2048 2 2099 15 164 43 276 176 297 353 6 44 8
627 7 1357 l-3 1280 -2396 3 c-1318 1 -2399 -1 -2402 -5z m2596 -513 c13 -11
27 -30 31 -43 3 -13 -71 -384 -169 -852 -192 -911 -182 -875 -256 -875 -44 0
-79 36 -79 81 0 38 337 1635 350 1659 14 26 50 50 76 50 12 0 33 -9 47 -20z
m-690 -340 c30 -24 41 -59 28 -93 -5 -13 -117 -116 -248 -227 -131 -112 -239
-206 -241 -210 -1 -3 105 -98 237 -210 141 -119 245 -214 251 -231 22 -52 -18
-109 -76 -109 -38 0 -40 1 -374 287 -152 130 -248 219 -254 236 -7 19 -6 35 5
57 12 25 265 248 528 467 71 58 102 66 144 33z m1102 -12 c131 -107 524 -445
542 -467 25 -28 29 -61 13 -91 -8 -16 -472 -417 -564 -488 -32 -24 -82 -28
-108 -8 -28 21 -41 65 -28 96 6 14 119 118 251 230 131 112 238 207 237 210
-2 4 -110 98 -241 210 -131 112 -243 214 -248 227 -13 34 -1 70 28 93 37 29
72 25 118 -12z"/>
</g>
</svg>
